<svg width="1440" height="1501" viewBox="0 0 1440 1501" fill="none" xmlns="http://www.w3.org/2000/svg">
<g clip-path="url(#clip0)">
<g filter="url(#filter0_f)">
<path d="M1337.97 536.926C1496.54 536.926 1625.09 406.29 1625.09 245.141C1625.09 83.9933 1496.54 -46.6431 1337.97 -46.6431C1179.4 -46.6431 1050.85 83.9933 1050.85 245.141C1050.85 406.29 1179.4 536.926 1337.97 536.926Z" fill="#0D6A53"/>
<path d="M733.119 377.624C891.69 377.624 1020.24 246.988 1020.24 85.8399C1020.24 -75.3082 891.69 -205.945 733.119 -205.945C574.547 -205.945 446 -75.3082 446 85.8399C446 246.988 574.547 377.624 733.119 377.624Z" fill="black"/>
<path d="M1291.52 273.569C1450.09 273.569 1578.64 142.933 1578.64 -18.2155C1578.64 -179.364 1450.09 -310 1291.52 -310C1132.95 -310 1004.4 -179.364 1004.4 -18.2155C1004.4 142.933 1132.95 273.569 1291.52 273.569Z" fill="#0D6A53"/>
<path d="M917.318 554.09C1075.89 554.09 1204.44 423.453 1204.44 262.305C1204.44 101.157 1075.89 -29.4792 917.318 -29.4792C758.747 -29.4792 630.199 101.157 630.199 262.305C630.199 423.453 758.747 554.09 917.318 554.09Z" fill="#0D6A53"/>
<path d="M897.79 396.934C1056.36 396.934 1184.91 266.297 1184.91 105.149C1184.91 -55.9989 1056.36 -186.635 897.79 -186.635C739.218 -186.635 610.671 -55.9989 610.671 105.149C610.671 266.297 739.218 396.934 897.79 396.934Z" fill="black"/>
<path d="M1147.96 550.871C1306.53 550.871 1435.08 420.235 1435.08 259.087C1435.08 97.9389 1306.53 -32.6975 1147.96 -32.6975C989.392 -32.6975 860.844 97.9389 860.844 259.087C860.844 420.235 989.392 550.871 1147.96 550.871Z" fill="#0D6A53"/>
</g>
</g>
<defs>
<filter id="filter0_f" x="-44" y="-800" width="2159.09" height="1844.09" filterUnits="userSpaceOnUse" color-interpolation-filters="sRGB">
<feFlood flood-opacity="0" result="BackgroundImageFix"/>
<feBlend mode="normal" in="SourceGraphic" in2="BackgroundImageFix" result="shape"/>
<feGaussianBlur stdDeviation="245" result="effect1_foregroundBlur"/>
</filter>
<clipPath id="clip0">
<rect width="1440" height="1501" fill="white"/>
</clipPath>
</defs>
</svg>
