<svg width="68" height="68" viewBox="0 0 68 68" fill="none" xmlns="http://www.w3.org/2000/svg">
<path d="M34 5.66675C18.377 5.66675 5.66663 18.3771 5.66663 34.0001C5.66663 49.6231 18.377 62.3334 34 62.3334C49.623 62.3334 62.3333 49.6231 62.3333 34.0001C62.3333 18.3771 49.623 5.66675 34 5.66675ZM34 56.6668C21.5021 56.6668 11.3333 46.4979 11.3333 34.0001C11.3333 21.5022 21.5021 11.3334 34 11.3334C46.4978 11.3334 56.6666 21.5022 56.6666 34.0001C56.6666 46.4979 46.4978 56.6668 34 56.6668Z" fill="#15DB7C"/>
<path d="M28.3307 38.4965L21.8168 31.994L17.8162 36.006L28.3363 46.5035L47.3367 27.5032L43.3303 23.4968L28.3307 38.4965Z" fill="#15DB7C"/>
</svg>
