<svg width="28" height="28" viewBox="0 0 28 28" fill="none" xmlns="http://www.w3.org/2000/svg">
<path d="M26.2188 0.71875H1.78125C1.19355 0.71875 0.71875 1.19355 0.71875 1.78125V26.2188C0.71875 26.8064 1.19355 27.2812 1.78125 27.2812H26.2188C26.8064 27.2812 27.2812 26.8064 27.2812 26.2188V1.78125C27.2812 1.19355 26.8064 0.71875 26.2188 0.71875ZM25.1562 25.1562H19.0436V16.9949H22.4967L23.0146 12.9873H19.0436V10.4273C19.0436 9.26523 19.3656 8.475 21.0291 8.475H23.1508V4.88906C22.7822 4.83926 21.5238 4.72969 20.0563 4.72969C16.9949 4.72969 14.8998 6.59902 14.8998 10.0289V12.984H11.44V16.9916H14.9031V25.1562H2.84375V2.84375H25.1562V25.1562Z" fill="#15DB7C"/>
</svg>
