<svg width="68" height="68" viewBox="0 0 68 68" fill="none" xmlns="http://www.w3.org/2000/svg">
<path fill-rule="evenodd" clip-rule="evenodd" d="M45.3334 25.4998C45.3334 28.5056 44.1394 31.3883 42.014 33.5137C39.8885 35.6391 37.0059 36.8332 34.0001 36.8332C30.9943 36.8332 28.1116 35.6391 25.9862 33.5137C23.8608 31.3883 22.6667 28.5056 22.6667 25.4998C22.6667 22.4941 23.8608 19.6114 25.9862 17.486C28.1116 15.3605 30.9943 14.1665 34.0001 14.1665C37.0059 14.1665 39.8885 15.3605 42.014 17.486C44.1394 19.6114 45.3334 22.4941 45.3334 25.4998ZM39.6667 25.4998C39.6667 27.0027 39.0697 28.4441 38.007 29.5068C36.9443 30.5695 35.503 31.1665 34.0001 31.1665C32.4972 31.1665 31.0559 30.5695 29.9931 29.5068C28.9304 28.4441 28.3334 27.0027 28.3334 25.4998C28.3334 23.9969 28.9304 22.5556 29.9931 21.4929C31.0559 20.4302 32.4972 19.8332 34.0001 19.8332C35.503 19.8332 36.9443 20.4302 38.007 21.4929C39.0697 22.5556 39.6667 23.9969 39.6667 25.4998Z" fill="#15DB7C"/>
<path fill-rule="evenodd" clip-rule="evenodd" d="M34 2.83325C16.7875 2.83325 2.83337 16.7874 2.83337 33.9999C2.83337 51.2124 16.7875 65.1666 34 65.1666C51.2125 65.1666 65.1667 51.2124 65.1667 33.9999C65.1667 16.7874 51.2125 2.83325 34 2.83325ZM8.50004 33.9999C8.50004 39.9216 10.5202 45.3729 13.906 49.7023C16.2839 46.5796 19.3514 44.049 22.8691 42.3081C26.3868 40.5672 30.2593 39.6632 34.1842 39.6666C38.0583 39.6629 41.8821 40.5436 45.3643 42.2415C48.8466 43.9394 51.8953 46.4097 54.2782 49.4643C56.7331 46.2445 58.3861 42.4864 59.1002 38.5009C59.8144 34.5155 59.5693 30.4173 58.3851 26.5454C57.201 22.6735 55.1118 19.1392 52.2906 16.235C49.4693 13.3308 45.9971 11.1402 42.1611 9.84436C38.3252 8.54853 34.2358 8.18477 30.2313 8.78318C26.2269 9.38158 22.4224 10.9249 19.1329 13.2856C15.8433 15.6462 13.1632 18.7562 11.3142 22.3583C9.46521 25.9604 8.50055 29.951 8.50004 33.9999ZM34 59.4999C28.1462 59.5087 22.4691 57.4949 17.9294 53.7993C19.7567 51.1833 22.1888 49.0475 25.0189 47.5735C27.849 46.0995 30.9933 45.331 34.1842 45.3333C37.3353 45.3307 40.4416 46.08 43.245 47.519C46.0484 48.9579 48.4681 51.0448 50.303 53.6066C45.7281 57.4222 39.9574 59.5083 34 59.4999Z" fill="#15DB7C"/>
</svg>
