<svg width="16" height="21" viewBox="0 0 16 21" fill="none" xmlns="http://www.w3.org/2000/svg">
<path d="M5.87341 11.5492L8.00008 9.93584L10.1176 11.5492L9.31091 8.93668L11.4376 7.25001H8.83425L8.00008 4.67418L7.16591 7.25001H4.56258L6.68008 8.93668L5.87341 11.5492ZM15.3334 8.16668C15.3334 4.11501 12.0517 0.833344 8.00008 0.833344C3.94841 0.833344 0.666748 4.11501 0.666748 8.16668C0.666748 10.0275 1.36341 11.7142 2.50008 13.0067V20.0833L8.00008 18.25L13.5001 20.0833V13.0067C14.6821 11.6716 15.3342 9.94983 15.3334 8.16668ZM8.00008 2.66668C11.0342 2.66668 13.5001 5.13251 13.5001 8.16668C13.5001 11.2008 11.0342 13.6667 8.00008 13.6667C4.96591 13.6667 2.50008 11.2008 2.50008 8.16668C2.50008 5.13251 4.96591 2.66668 8.00008 2.66668ZM8.00008 16.4167L4.33341 17.3517V14.51C5.41508 15.1333 6.66175 15.5 8.00008 15.5C9.33841 15.5 10.5851 15.1333 11.6667 14.51V17.3517L8.00008 16.4167Z" fill="#DB8C15"/>
</svg>
