<svg width="30" height="30" viewBox="0 0 30 30" fill="none" xmlns="http://www.w3.org/2000/svg">
<path fill-rule="evenodd" clip-rule="evenodd" d="M8.9535 0.421313C10.5175 0.349313 11.0162 0.333313 15.0002 0.333313C18.9842 0.333313 19.4828 0.350646 21.0455 0.421313C22.6082 0.49198 23.6748 0.741313 24.6082 1.10265C25.5855 1.47198 26.4722 2.04931 27.2055 2.79598C27.9522 3.52798 28.5282 4.41331 28.8962 5.39198C29.2588 6.32531 29.5068 7.39198 29.5788 8.95198C29.6508 10.5186 29.6668 11.0173 29.6668 15C29.6668 18.984 29.6495 19.4826 29.5788 21.0466C29.5082 22.6066 29.2588 23.6733 28.8962 24.6066C28.5281 25.5854 27.9512 26.4722 27.2055 27.2053C26.4722 27.952 25.5855 28.528 24.6082 28.896C23.6748 29.2586 22.6082 29.5066 21.0482 29.5786C19.4828 29.6506 18.9842 29.6666 15.0002 29.6666C11.0162 29.6666 10.5175 29.6493 8.9535 29.5786C7.3935 29.508 6.32683 29.2586 5.3935 28.896C4.41472 28.5279 3.52792 27.951 2.79483 27.2053C2.04867 26.4729 1.47125 25.5865 1.10283 24.608C0.741496 23.6746 0.493496 22.608 0.421496 21.048C0.349496 19.4813 0.333496 18.9826 0.333496 15C0.333496 11.016 0.350829 10.5173 0.421496 8.95465C0.492163 7.39198 0.741496 6.32531 1.10283 5.39198C1.47179 4.41342 2.04965 3.52706 2.79616 2.79465C3.52822 2.04865 4.41412 1.47124 5.39216 1.10265C6.3255 0.741313 7.39216 0.493313 8.95216 0.421313H8.9535ZM20.9268 3.06131C19.3802 2.99065 18.9162 2.97598 15.0002 2.97598C11.0842 2.97598 10.6202 2.99065 9.07349 3.06131C7.64283 3.12665 6.86683 3.36531 6.3495 3.56665C5.6655 3.83331 5.17616 4.14931 4.66283 4.66265C4.17622 5.13605 3.80174 5.71236 3.56683 6.34931C3.3655 6.86665 3.12683 7.64265 3.0615 9.07331C2.99083 10.62 2.97616 11.084 2.97616 15C2.97616 18.916 2.99083 19.38 3.0615 20.9266C3.12683 22.3573 3.3655 23.1333 3.56683 23.6506C3.8015 24.2866 4.17616 24.864 4.66283 25.3373C5.13616 25.824 5.7135 26.1986 6.3495 26.4333C6.86683 26.6346 7.64283 26.8733 9.07349 26.9386C10.6202 27.0093 11.0828 27.024 15.0002 27.024C18.9175 27.024 19.3802 27.0093 20.9268 26.9386C22.3575 26.8733 23.1335 26.6346 23.6508 26.4333C24.3348 26.1666 24.8242 25.8506 25.3375 25.3373C25.8242 24.864 26.1988 24.2866 26.4335 23.6506C26.6348 23.1333 26.8735 22.3573 26.9388 20.9266C27.0095 19.38 27.0242 18.916 27.0242 15C27.0242 11.084 27.0095 10.62 26.9388 9.07331C26.8735 7.64265 26.6348 6.86665 26.4335 6.34931C26.1668 5.66531 25.8508 5.17598 25.3375 4.66265C24.8641 4.17607 24.2878 3.80159 23.6508 3.56665C23.1335 3.36531 22.3575 3.12665 20.9268 3.06131ZM13.1268 19.5213C14.173 19.9568 15.338 20.0156 16.4227 19.6876C17.5075 19.3596 18.4447 18.6652 19.0743 17.723C19.7039 16.7807 19.9869 15.6491 19.8749 14.5215C19.7629 13.3938 19.2628 12.3399 18.4602 11.54C17.9485 11.0286 17.3298 10.6371 16.6486 10.3935C15.9674 10.15 15.2407 10.0605 14.5208 10.1315C13.8009 10.2025 13.1057 10.4322 12.4852 10.8042C11.8648 11.1761 11.3345 11.681 10.9326 12.2824C10.5306 12.8839 10.2671 13.567 10.1608 14.2826C10.0546 14.9982 10.1084 15.7284 10.3182 16.4207C10.5281 17.113 10.8888 17.7501 11.3745 18.2863C11.8601 18.8224 12.4586 19.2442 13.1268 19.5213ZM9.66949 9.66931C10.3695 8.96928 11.2006 8.41398 12.1152 8.03513C13.0299 7.65627 14.0102 7.46128 15.0002 7.46128C15.9902 7.46128 16.9705 7.65627 17.8851 8.03513C18.7997 8.41398 19.6308 8.96928 20.3308 9.66931C21.0309 10.3693 21.5862 11.2004 21.965 12.115C22.3439 13.0297 22.5389 14.01 22.5389 15C22.5389 15.99 22.3439 16.9703 21.965 17.8849C21.5862 18.7996 21.0309 19.6306 20.3308 20.3306C18.917 21.7444 16.9995 22.5387 15.0002 22.5387C13.0008 22.5387 11.0833 21.7444 9.66949 20.3306C8.25571 18.9169 7.46146 16.9994 7.46146 15C7.46146 13.0006 8.25571 11.0831 9.66949 9.66931ZM24.2108 8.58398C24.3843 8.42034 24.5232 8.22355 24.6192 8.00528C24.7153 7.787 24.7666 7.55167 24.77 7.31322C24.7735 7.07477 24.7291 6.83804 24.6395 6.61706C24.5498 6.39608 24.4167 6.19533 24.2481 6.0267C24.0795 5.85807 23.8787 5.72499 23.6577 5.63534C23.4368 5.54568 23.2 5.50128 22.9616 5.50476C22.7231 5.50823 22.4878 5.55952 22.2695 5.65557C22.0513 5.75163 21.8545 5.89051 21.6908 6.06398C21.3726 6.40135 21.1983 6.84947 21.2051 7.31322C21.2119 7.77696 21.3991 8.21982 21.727 8.54777C22.055 8.87572 22.4978 9.06295 22.9616 9.06971C23.4253 9.07647 23.8735 8.90223 24.2108 8.58398Z" fill="#15DB7C"/>
</svg>
