<svg width="28" height="28" viewBox="0 0 28 28" fill="none" xmlns="http://www.w3.org/2000/svg">
<path d="M25.1463 0.71875H2.85371C1.675 0.71875 0.71875 1.675 0.71875 2.85371V25.1463C0.71875 26.325 1.675 27.2812 2.85371 27.2812H25.1463C26.325 27.2812 27.2812 26.325 27.2812 25.1463V2.85371C27.2812 1.675 26.325 0.71875 25.1463 0.71875ZM25.1463 25.1562C10.2779 25.1529 2.84375 25.1496 2.84375 25.1463C2.84707 10.2779 2.85039 2.84375 2.85371 2.84375C17.7221 2.84707 25.1562 2.85039 25.1562 2.85371C25.1529 17.7221 25.1496 25.1562 25.1463 25.1562ZM4.65664 10.6764H8.59785V23.3533H4.65664V10.6764ZM6.62891 8.94316C7.8873 8.94316 8.91328 7.92051 8.91328 6.65879C8.91328 6.3588 8.85419 6.06175 8.73939 5.7846C8.62459 5.50744 8.45633 5.25562 8.2442 5.04349C8.03208 4.83137 7.78025 4.6631 7.5031 4.5483C7.22595 4.4335 6.92889 4.37441 6.62891 4.37441C6.32892 4.37441 6.03187 4.4335 5.75471 4.5483C5.47756 4.6631 5.22573 4.83137 5.01361 5.04349C4.80149 5.25562 4.63322 5.50744 4.51842 5.7846C4.40362 6.06175 4.34453 6.3588 4.34453 6.65879C4.34121 7.92051 5.36387 8.94316 6.62891 8.94316ZM15.0061 17.0812C15.0061 15.4277 15.3215 13.8273 17.3701 13.8273C19.3889 13.8273 19.4188 15.7166 19.4188 17.1875V23.3533H23.3566V16.4006C23.3566 12.9873 22.6195 10.3609 18.6318 10.3609C16.716 10.3609 15.4311 11.4135 14.9031 12.4096H14.85V10.6764H11.0682V23.3533H15.0061V17.0812Z" fill="#15DB7C"/>
</svg>
