<svg width="14" height="16" viewBox="0 0 14 16" fill="none" xmlns="http://www.w3.org/2000/svg">
<path d="M2.38219 2.42601C3.6069 1.20131 5.26795 0.513275 6.99994 0.513275C8.73193 0.513275 10.393 1.20131 11.6177 2.42601C12.8424 3.65071 13.5304 5.31177 13.5304 7.04376C13.5304 8.77575 12.8424 10.4368 11.6177 11.6615L10.7274 12.542C10.0712 13.1855 9.21994 14.0135 8.17294 15.026C7.85826 15.3303 7.43767 15.5004 6.99994 15.5004C6.56222 15.5004 6.14162 15.3303 5.82694 15.026L3.20869 12.479C2.87944 12.1558 2.60419 11.8835 2.38219 11.6615C1.77575 11.0551 1.2947 10.3352 0.966491 9.54289C0.638286 8.75057 0.46936 7.90136 0.46936 7.04376C0.46936 6.18616 0.638286 5.33695 0.966491 4.54463C1.2947 3.75232 1.77575 3.03241 2.38219 2.42601ZM10.8219 3.22101C9.80809 2.20735 8.43308 1.63796 6.99941 1.63811C5.56574 1.63825 4.19085 2.2079 3.17719 3.22176C2.16353 4.23562 1.59415 5.61062 1.59429 7.04429C1.59443 8.47796 2.16409 9.85285 3.17794 10.8665L4.29244 11.9675C5.0623 12.7197 5.8343 13.4697 6.60844 14.2175C6.71335 14.319 6.8536 14.3757 6.99957 14.3757C7.14553 14.3757 7.28579 14.319 7.39069 14.2175L9.93619 11.7425C10.2887 11.3968 10.5834 11.105 10.8212 10.8665C11.8348 9.85284 12.4043 8.47803 12.4043 7.04451C12.4043 5.61099 11.8348 4.23618 10.8212 3.22251L10.8219 3.22101ZM6.99994 4.99926C7.29561 4.99926 7.58839 5.0575 7.86155 5.17064C8.13472 5.28379 8.38292 5.44964 8.59199 5.65871C8.80106 5.86778 8.96691 6.11598 9.08006 6.38915C9.1932 6.66231 9.25144 6.95509 9.25144 7.25076C9.25144 7.54643 9.1932 7.83921 9.08006 8.11237C8.96691 8.38554 8.80106 8.63374 8.59199 8.84281C8.38292 9.05188 8.13472 9.21773 7.86155 9.33088C7.58839 9.44402 7.29561 9.50226 6.99994 9.50226C6.41002 9.49149 5.8479 9.24959 5.43452 8.82859C5.02114 8.4076 4.78953 7.84115 4.78953 7.25113C4.78953 6.66112 5.02114 6.09467 5.43452 5.67368C5.8479 5.25268 6.41002 5.01078 6.99994 5.00001V4.99926ZM6.99994 6.12426C6.85201 6.12426 6.70552 6.1534 6.56885 6.21001C6.43218 6.26662 6.30799 6.3496 6.20339 6.4542C6.09878 6.55881 6.0158 6.68299 5.95919 6.81967C5.90258 6.95634 5.87344 7.10283 5.87344 7.25076C5.87344 7.39869 5.90258 7.54518 5.95919 7.68185C6.0158 7.81853 6.09878 7.94271 6.20339 8.04732C6.30799 8.15192 6.43218 8.2349 6.56885 8.29151C6.70552 8.34812 6.85201 8.37726 6.99994 8.37726C7.29861 8.37726 7.58504 8.25862 7.79623 8.04743C8.00742 7.83624 8.12607 7.5498 8.12607 7.25113C8.12607 6.95247 8.00742 6.66603 7.79623 6.45484C7.58504 6.24366 7.29861 6.12501 6.99994 6.12501V6.12426Z" fill="#15DB7C"/>
</svg>
