<svg width="22" height="22" viewBox="0 0 22 22" fill="none" xmlns="http://www.w3.org/2000/svg">
<g clip-path="url(#clip0)">
<path d="M8.87366 12.5491L11.0003 10.9358L13.1178 12.5491L12.3112 9.93665L14.4378 8.24998H11.8345L11.0003 5.67415L10.1662 8.24998H7.56283L9.68033 9.93665L8.87366 12.5491ZM18.3337 9.16665C18.3337 5.11498 15.052 1.83331 11.0003 1.83331C6.94866 1.83331 3.66699 5.11498 3.66699 9.16665C3.66699 11.0275 4.36366 12.7141 5.50033 14.0066V21.0833L11.0003 19.25L16.5003 21.0833V14.0066C17.6823 12.6715 18.3345 10.9498 18.3337 9.16665ZM11.0003 3.66665C14.0345 3.66665 16.5003 6.13248 16.5003 9.16665C16.5003 12.2008 14.0345 14.6666 11.0003 14.6666C7.96616 14.6666 5.50033 12.2008 5.50033 9.16665C5.50033 6.13248 7.96616 3.66665 11.0003 3.66665ZM11.0003 17.4166L7.33366 18.3516V15.51C8.41533 16.1333 9.66199 16.5 11.0003 16.5C12.3387 16.5 13.5853 16.1333 14.667 15.51V18.3516L11.0003 17.4166Z" fill="#DB8C15"/>
</g>
<defs>
<clipPath id="clip0">
<rect width="22" height="22" fill="white"/>
</clipPath>
</defs>
</svg>
