<svg width="54" height="54" viewBox="0 0 54 54" fill="none" xmlns="http://www.w3.org/2000/svg">
<path d="M53.4031 49.7441L36.1574 32.4984C38.8336 29.0387 40.2812 24.8086 40.2812 20.3594C40.2812 15.0336 38.2027 10.0398 34.4441 6.27461C30.6855 2.50937 25.6785 0.4375 20.3594 0.4375C15.0402 0.4375 10.0332 2.51602 6.27461 6.27461C2.50937 10.0332 0.4375 15.0336 0.4375 20.3594C0.4375 25.6785 2.51602 30.6855 6.27461 34.4441C10.0332 38.2094 15.0336 40.2812 20.3594 40.2812C24.8086 40.2812 29.032 38.8336 32.4918 36.1641L49.7375 53.4031C49.7881 53.4537 49.8481 53.4939 49.9142 53.5212C49.9803 53.5486 50.0511 53.5627 50.1227 53.5627C50.1942 53.5627 50.265 53.5486 50.3311 53.5212C50.3972 53.4939 50.4572 53.4537 50.5078 53.4031L53.4031 50.5145C53.4537 50.4639 53.4939 50.4038 53.5212 50.3378C53.5486 50.2717 53.5627 50.2008 53.5627 50.1293C53.5627 50.0578 53.5486 49.9869 53.5212 49.9208C53.4939 49.8548 53.4537 49.7947 53.4031 49.7441ZM30.8781 30.8781C28.0625 33.6871 24.3305 35.2344 20.3594 35.2344C16.3883 35.2344 12.6563 33.6871 9.84063 30.8781C7.03164 28.0625 5.48438 24.3305 5.48438 20.3594C5.48438 16.3883 7.03164 12.6496 9.84063 9.84063C12.6563 7.03164 16.3883 5.48438 20.3594 5.48438C24.3305 5.48438 28.0691 7.025 30.8781 9.84063C33.6871 12.6563 35.2344 16.3883 35.2344 20.3594C35.2344 24.3305 33.6871 28.0691 30.8781 30.8781Z" fill="#15DB7C"/>
</svg>
