<svg width="22" height="22" viewBox="0 0 22 22" fill="none" xmlns="http://www.w3.org/2000/svg">
<path d="M11.2273 0.92191C7.65311 0.912535 4.5078 2.76175 2.71015 5.55551C2.63046 5.67972 2.71952 5.84379 2.86718 5.84379H4.51483C4.62733 5.84379 4.7328 5.79457 4.80311 5.70785C4.96718 5.50863 5.14296 5.31644 5.32811 5.13363C6.09218 4.37191 6.98046 3.77191 7.96952 3.35472C8.9914 2.92347 10.0789 2.70316 11.2016 2.70316C12.3242 2.70316 13.4117 2.92113 14.4336 3.35472C15.4226 3.77191 16.3109 4.37191 17.075 5.13363C17.8391 5.89535 18.4367 6.78363 18.8562 7.77035C19.2898 8.79223 19.5078 9.87738 19.5078 11C19.5078 12.1227 19.2875 13.2079 18.8562 14.2297C18.4391 15.2164 17.8391 16.1047 17.075 16.8664C16.3109 17.6282 15.4226 18.2282 14.4336 18.6454C13.4109 19.0773 12.3117 19.2989 11.2016 19.2969C10.0789 19.2969 8.9914 19.0766 7.96952 18.6454C6.9824 18.2286 6.0854 17.6245 5.32811 16.8664C5.14296 16.6813 4.96952 16.4891 4.80311 16.2922C4.7328 16.2055 4.62499 16.1563 4.51483 16.1563H2.86718C2.71952 16.1563 2.62811 16.3204 2.71015 16.4446C4.50546 19.2313 7.63671 21.0782 11.2016 21.0782C16.7375 21.0782 21.2328 16.6227 21.2891 11.1032C21.3453 5.49457 16.843 0.935973 11.2273 0.92191ZM8.25827 13.625V11.8438H0.898895C0.79577 11.8438 0.711395 11.7594 0.711395 11.6563V10.3438C0.711395 10.2407 0.79577 10.1563 0.898895 10.1563H8.25827V8.37504C8.25827 8.21801 8.44108 8.12894 8.56296 8.22738L11.8887 10.8524C11.9111 10.8699 11.9293 10.8923 11.9417 10.9179C11.9542 10.9435 11.9607 10.9716 11.9607 11C11.9607 11.0285 11.9542 11.0566 11.9417 11.0822C11.9293 11.1077 11.9111 11.1302 11.8887 11.1477L8.56296 13.7727C8.44108 13.8688 8.25827 13.7821 8.25827 13.625Z" fill="#15DB7C"/>
</svg>
