<svg width="16" height="21" viewBox="0 0 16 21" fill="none" xmlns="http://www.w3.org/2000/svg">
<path d="M5.87341 11.5492L8.00008 9.93583L10.1176 11.5492L9.31091 8.93667L11.4376 7.25H8.83425L8.00008 4.67417L7.16591 7.25H4.56258L6.68008 8.93667L5.87341 11.5492ZM15.3334 8.16667C15.3334 4.115 12.0517 0.833336 8.00008 0.833336C3.94841 0.833336 0.666748 4.115 0.666748 8.16667C0.666748 10.0275 1.36341 11.7142 2.50008 13.0067V20.0833L8.00008 18.25L13.5001 20.0833V13.0067C14.6821 11.6715 15.3342 9.94982 15.3334 8.16667ZM8.00008 2.66667C11.0342 2.66667 13.5001 5.1325 13.5001 8.16667C13.5001 11.2008 11.0342 13.6667 8.00008 13.6667C4.96591 13.6667 2.50008 11.2008 2.50008 8.16667C2.50008 5.1325 4.96591 2.66667 8.00008 2.66667ZM8.00008 16.4167L4.33341 17.3517V14.51C5.41508 15.1333 6.66175 15.5 8.00008 15.5C9.33841 15.5 10.5851 15.1333 11.6667 14.51V17.3517L8.00008 16.4167Z" fill="#DB8C15"/>
</svg>
